<svg xmlns="http://www.w3.org/2000/svg" width="44" height="40" viewBox="0 0 44 40">
    <g fill="none" fill-rule="evenodd">
        <rect width="44" height="30" y="10" fill="#EBEDF8" rx="3"/>
        <g transform="translate(6)">
            <rect width="24" height="25" x="4" fill="#FFF" fill-rule="nonzero" rx="12"/>
            <path fill="#F84B0F" fill-rule="nonzero" d="M1 12h30v13H1z"/>
            <path fill="#FFF" fill-rule="nonzero" d="M6.063 19.275c-1.137 0-2.063-.96-2.063-2.139C4 15.958 4.926 15 6.063 15c1.138 0 2.064.958 2.064 2.136 0 1.18-.926 2.14-2.064 2.14z"/>
            <path fill="#000" fill-rule="nonzero" d="M6.266 14C4.465 14 3 15.518 3 17.383c0 1.868 1.465 3.387 3.266 3.387 1.8 0 3.266-1.52 3.266-3.387C9.532 15.518 8.067 14 6.266 14zm0 5.522c-1.138 0-2.063-.96-2.063-2.139 0-1.178.925-2.136 2.063-2.136 1.138 0 2.063.958 2.063 2.136 0 1.18-.925 2.14-2.063 2.14z"/>
            <path fill="#FFF" fill-rule="nonzero" d="M26.291 19.2c-1.138 0-2.063-.96-2.063-2.139 0-1.178.925-2.136 2.063-2.136 1.138 0 2.064.958 2.064 2.136 0 1.18-.926 2.14-2.064 2.14z"/>
            <path fill="#000" fill-rule="nonzero" d="M26.291 13.678c-1.8 0-3.266 1.518-3.266 3.383 0 1.867 1.465 3.386 3.266 3.386s3.267-1.519 3.267-3.386c0-1.865-1.466-3.383-3.267-3.383zm0 5.522c-1.138 0-2.063-.96-2.063-2.139 0-1.178.925-2.136 2.063-2.136 1.138 0 2.064.958 2.064 2.136 0 1.18-.926 2.14-2.064 2.14z"/>
            <path fill="#000" d="M20.792 14.828h-9.621a.613.613 0 0 0-.602.624c0 .344.27.623.602.623h9.621c.332 0 .601-.279.601-.623a.613.613 0 0 0-.6-.624zM20.792 16.588h-9.621a.613.613 0 0 0-.602.624c0 .344.27.623.602.623h9.621c.332 0 .601-.279.601-.623a.613.613 0 0 0-.6-.624zM20.792 18.351h-9.621a.613.613 0 0 0-.602.624c0 .344.27.623.602.623h9.621c.332 0 .601-.279.601-.623a.613.613 0 0 0-.6-.624z"/>
            <path fill="#000" fill-rule="nonzero" d="M31.488 8.841a1.51 1.51 0 0 0-1.092-.47h-2.123V6.395c0-3.517-2.761-6.38-6.156-6.38H9.846c-3.395 0-6.157 2.863-6.157 6.38v1.976H1.567C.715 8.37.022 9.09.022 9.973v1.36c0 .345.27.624.601.624H2.04a3.609 3.609 0 0 0-1.82 3.157V24.17c0 .345.268.624.6.624h2.748v3.447c0 .933.73 1.69 1.63 1.69h1.642c.898 0 1.63-.757 1.63-1.69v-3.447h14.884v3.447c0 .933.73 1.69 1.63 1.69h1.64c.9 0 1.631-.757 1.631-1.69v-3.447h2.889c.332 0 .601-.28.601-.624v-9.056c0-1.363-.737-2.55-1.82-3.157h1.417c.332 0 .6-.279.6-.623v-1.36a1.62 1.62 0 0 0-.453-1.133zM4.892 6.395c0-2.83 2.222-5.132 4.954-5.132h12.27c2.733 0 4.955 2.302 4.955 5.132v5.133H4.89V6.395zM1.225 9.973c0-.192.157-.355.342-.355H3.69v1.092H1.225v-.737zm6.041 18.268c0 .24-.196.444-.427.444H5.196a.436.436 0 0 1-.427-.444v-3.447h2.497v3.447zm19.786 0a.437.437 0 0 1-.428.444h-1.641a.436.436 0 0 1-.428-.444v-3.447h2.497v3.447zm3.49-4.694H1.42v-.649h29.122v.649zm0-1.896H1.42v-6.537c0-1.29 1.013-2.339 2.258-2.339H28.284c1.245 0 2.258 1.05 2.258 2.339v6.537zm.197-10.94h-2.466V9.617h2.123c.09 0 .177.037.242.105a.358.358 0 0 1 .102.25v.737z"/>
        </g>
    </g>
</svg>
