<?xml version="1.0" encoding="UTF-8"?>
<svg xmlns="http://www.w3.org/2000/svg" xmlns:xlink="http://www.w3.org/1999/xlink" width="128pt" height="128pt" viewBox="0 0 128 128" version="1.1">
<g id="surface416963">
<path style=" stroke:none;fill-rule:nonzero;fill:rgb(98.823529%,78.823529%,72.156863%);fill-opacity:1;" d="M 126.023438 64 C 126.023438 29.75 98.25 1.976562 64 1.976562 C 29.75 1.976562 1.976562 29.75 1.976562 64 C 1.976562 98.25 29.75 126.023438 64 126.023438 C 98.25 126.023438 126.023438 98.25 126.023438 64 Z M 126.023438 64 "/>
<path style=" stroke:none;fill-rule:nonzero;fill:rgb(97.254902%,29.411765%,5.882353%);fill-opacity:1;" d="M 80.800781 91.875 C 80.449219 91.375 79.800781 91.175781 79.226562 91.449219 C 73.074219 94.351562 66.101562 97.425781 64.726562 97.699219 C 64.699219 97.675781 64.625 97.625 64.574219 97.523438 C 64.398438 97.273438 64.300781 96.949219 64.300781 96.523438 C 64.300781 93.050781 66.925781 82.476562 72.101562 65.101562 C 76.476562 50.5 76.976562 47.476562 76.976562 46.476562 C 76.976562 44.925781 76.375 43.625 75.25 42.699219 C 74.175781 41.824219 72.699219 41.375 70.824219 41.375 C 67.699219 41.375 64.101562 42.550781 59.800781 45 C 55.625 47.351562 50.949219 51.351562 45.949219 56.875 C 45.550781 57.300781 45.523438 57.949219 45.851562 58.425781 C 46.175781 58.898438 46.800781 59.074219 47.351562 58.875 C 49.101562 58.148438 57.949219 54.523438 59.25 53.726562 C 60.300781 53.074219 61.226562 52.726562 61.976562 52.726562 C 62 52.726562 62.023438 52.726562 62.050781 52.726562 C 62.050781 52.773438 62.074219 52.851562 62.074219 52.949219 C 62.074219 53.699219 61.925781 54.625 61.601562 55.625 C 54.074219 80.023438 50.398438 95 50.398438 101.375 C 50.398438 103.625 51.023438 105.425781 52.25 106.75 C 53.5 108.101562 55.199219 108.773438 57.273438 108.773438 C 59.5 108.773438 62.199219 107.851562 65.550781 105.925781 C 68.773438 104.074219 73.726562 100 80.648438 93.5 C 81.074219 93.050781 81.148438 92.375 80.800781 91.875 Z M 80.550781 21.148438 C 79.324219 19.898438 77.75 19.25 75.875 19.25 C 73.550781 19.25 71.5 20.175781 69.824219 22 C 68.175781 23.800781 67.351562 25.976562 67.351562 28.523438 C 67.351562 30.523438 67.976562 32.199219 69.175781 33.476562 C 70.398438 34.773438 71.949219 35.425781 73.800781 35.425781 C 76.050781 35.425781 78.050781 34.449219 79.800781 32.523438 C 81.523438 30.625 82.398438 28.425781 82.398438 25.925781 C 82.398438 24 81.773438 22.398438 80.550781 21.148438 Z M 80.550781 21.148438 "/>
</g>
</svg>
