<svg xmlns="http://www.w3.org/2000/svg" width="48" height="40" viewBox="0 0 48 40">
    <g fill="none" fill-rule="evenodd">
        <rect width="48" height="32" fill="#EBEDF8" fill-rule="nonzero" rx="3"/>
        <path fill="#FFF" fill-rule="nonzero" d="M14.804 16.668h2.792v4.898h-2.074l1.304 2.997h1.859l1.598 2.694-1.598 2.804c-3.337.864-5.642 1.956-6.913 3.276-1.272 1.32-1.913 3.284-1.924 5.894h28.565c-.18-2.751-.855-4.716-2.022-5.893-1.167-1.178-3.547-2.295-7.141-3.352l-1.696-2.654c.583-.42 1.148-1.118 1.696-2.092s.972-2.035 1.272-3.183l2.291-.49.5-6.253c-.18-2.372-1.328-4.246-3.443-5.621-2.116-1.375-4.725-1.942-7.827-1.702-2.298.74-4.037 1.816-5.217 3.23-1.18 1.415-1.854 3.23-2.022 5.447z"/>
        <path fill="#323C47" d="M31.174 32.523a.649.649 0 0 0-.652.645c0 .356.292.645.652.645.36 0 .652-.29.652-.645a.649.649 0 0 0-.652-.645z"/>
        <path fill="#FA8132" fill-rule="nonzero" d="M14.804 16.668l.424 4.906 2.368.483v-5.124zM33.314 16.668l-.424 4.906-2.368.483v-5.124zM21.614 23.564h3.56v2.127h-3.56"/>
        <path fill="#323C47" fill-rule="nonzero" d="M32.78 30.44l-3.1-1.022-1.113-2.2a7.03 7.03 0 0 0 1.933-3.734l.14-.822h1.186c1.079 0 1.957-.867 1.957-1.933v-4.061C33.783 11.338 29.394 7 24 7c-5.408 0-9.783 4.325-9.783 9.668v4.06c0 .84.546 1.557 1.305 1.823v.756c0 1.066.877 1.933 1.956 1.933h.573a6.984 6.984 0 0 0 1.381 1.98l-1.112 2.198-3.1 1.021C11.616 31.627 9 35.377 9 39.355c0 .356.292.645.652.645h28.696c.36 0 .652-.289.652-.645 0-3.978-2.616-7.728-6.22-8.916zm-.302-9.711a.65.65 0 0 1-.652.644h-.995c.166-1.269.276-2.62.32-3.95l.004-.11h1.323v3.416zm-16.304.644a.65.65 0 0 1-.652-.644v-3.416h1.324l.007.202v.007c.045 1.294.154 2.61.316 3.851h-.995zm1.304 2.578a.65.65 0 0 1-.652-.644v-.645h.535l.139.822c.026.157.059.312.096.467h-.118zm-.65-7.928h-1.281c.33-4.32 3.978-7.734 8.453-7.734 4.456 0 8.12 3.414 8.453 7.734h-1.28c-.047-3.56-2.98-6.445-6.59-6.445h-1.167c-3.609 0-6.542 2.886-6.589 6.445zm6.588-5.156h1.168c2.922 0 5.287 2.362 5.286 5.247 0 .203-.002.38-.006.54v.007l-.815-.115a10.526 10.526 0 0 1-5.892-2.912.656.656 0 0 0-.461-.189 5.928 5.928 0 0 0-4.537 2.121c.273-2.624 2.518-4.699 5.257-4.699zm-4.468 13.084c-.326-1.073-.7-4.231-.782-6.255l.877-1.157a4.606 4.606 0 0 1 3.395-1.797 11.853 11.853 0 0 0 6.426 3.08l.96.135a39.219 39.219 0 0 1-.383 3.94c-.06.4-.107.657-.227 1.375-.346 2.048-1.891 3.899-3.932 4.403a5.366 5.366 0 0 1-2.564 0c-1.274-.315-2.442-1.186-3.196-2.435h1.33c.269.75.993 1.29 1.844 1.29H24a1.945 1.945 0 0 0 1.957-1.934c0-1.066-.878-1.934-1.957-1.934h-1.304c-.87 0-1.584.555-1.846 1.29h-1.902zm3.693 5.029a6.673 6.673 0 0 0 2.426.054l-1.153 1.204-1.273-1.258zm.377 2.195l-2.07 2.162a24.407 24.407 0 0 1-1.46-3.346l.778-1.536 2.752 2.72zm4.606-2.938l.887 1.754a24.4 24.4 0 0 1-1.46 3.347l-2.214-2.188 2.787-2.913zm-5.58-3.641c0-.356.292-.645.652-.645H24c.36 0 .652.29.652.645a.648.648 0 0 1-.652.644h-1.304a.65.65 0 0 1-.653-.644zM10.33 38.71c.259-3.193 2.409-6.095 5.303-7.049l2.745-.904a25.696 25.696 0 0 0 1.856 3.98l.004.006a25.816 25.816 0 0 0 1.785 2.694l.802 1.273H10.33zM24 38.136l-.884-1.403a24.557 24.557 0 0 1-1.501-2.215l2.325-2.431 2.45 2.422a24.53 24.53 0 0 1-1.474 2.178c-.032.042.014-.024-.916 1.45zm1.175.575l.802-1.273a25.806 25.806 0 0 0 1.797-2.715l.01-.018.001-.002a25.674 25.674 0 0 0 1.837-3.945l2.745.904c2.894.954 5.044 3.856 5.303 7.049H25.175z"/>
        <path fill="#323C47" d="M35.71 36.103a6.461 6.461 0 0 0-1.847-2.215.657.657 0 0 0-.914.117.64.64 0 0 0 .119.904 5.161 5.161 0 0 1 1.475 1.77.656.656 0 0 0 .874.288.641.641 0 0 0 .293-.864z"/>
    </g>
</svg>
