<svg xmlns="http://www.w3.org/2000/svg" width="48" height="39" viewBox="0 0 48 39">
    <g fill="none" fill-rule="nonzero">
        <rect width="48" height="32" fill="#EBEDF8" rx="3"/>
        <path fill="#FFF" d="M13.264 9.544c-.631.156-1.035.378-1.21.666-.174.287-.174.728 0 1.323v19.913h-2.51v7.04h29.002V35.77h-7.681v-1.972H20.22v-1.97h-5.897V12.023c.373-.683.463-1.25.272-1.698-.192-.449-.635-.71-1.33-.782z"/>
        <path fill="#FA8132" d="M19.706 9.968h8.135l-2.238 2.834 2.238 2.912h-4.779z"/>
        <path fill="#FFF" d="M19.161 10.192v3.133h3.387z"/>
        <path fill="#FA8132" d="M14.323 13.325h8.74v5.594h-8.74"/>
        <path fill="#FFF" d="M25.21 18.254h8.921a4.415 4.415 0 0 1 4.415 4.415v2.45c0 1.086-.88 1.966-1.965 1.966v8.83h-2.057v-8.83h-4.687v6.471H27.84V29.29a4.34 4.34 0 0 1 4.34-4.34v-4.88H25.21v-1.815zM32.407 12.599v2.812c.686.654 1.26.98 1.724.98.464 0 1.038-.326 1.724-.98V12.6c-.615-.761-1.19-1.142-1.724-1.142s-1.109.38-1.724 1.142z"/>
        <path fill="#323C47" d="M38.516 27.387a.484.484 0 0 0 .484-.484V20.13a2.422 2.422 0 0 0-2.42-2.42H24.969a.484.484 0 0 0-.484.485v1.935c0 .267.217.484.484.484h6.774v3.87h-2.903c-.8 0-1.452.652-1.452 1.452v7.259h-6.774v-1.452a.484.484 0 0 0-.484-.484h-5.323V19.645h8.226a.484.484 0 0 0 .484-.484v-2.903h4.355a.484.484 0 0 0 .372-.794l-2.162-2.593 2.162-2.594a.484.484 0 0 0-.372-.793h-8.71a.484.484 0 0 0-.484.484v2.903h-3.87v-.669c.297-.34.483-.78.483-1.267A1.937 1.937 0 0 0 13.355 9a1.937 1.937 0 0 0-1.936 1.935c0 .487.187.927.484 1.267v19.056h-2.42a.484.484 0 0 0-.483.484v6.774c0 .267.217.484.484.484h29.032a.484.484 0 0 0 .484-.484v-2.903a.484.484 0 0 0-.484-.484h-1.451v-7.742h1.451zM25.08 12.561c-.15.18-.15.44 0 .62l1.758 2.11h-3.322v-1.936a.478.478 0 0 0-.168-.36l.003-.004-2.902-2.54h6.388l-1.757 2.11zm-5.435-1.527l2.1 1.837h-2.1v-1.837zm2.903 2.805v4.838h-7.742v-.967h2.904v-.968h-2.904v-.968h2.904v-.968h-2.904v-.967h7.742zm-9.193-3.871a.969.969 0 0 1 0 1.935.969.969 0 0 1 0-1.935zm-.484 2.834c.156.04.316.069.484.069.168 0 .328-.028.484-.069v18.456h-.968V12.802zm25.161 25.23H9.968v-5.806h9.677v1.451c0 .267.217.484.484.484H30.29v1.452c0 .267.217.484.484.484h7.258v1.935zm-3.87-2.903h-2.904v-1.452a.484.484 0 0 0-.484-.483h-.484v-5.807h3.871v7.742zm.967 0v-8.226a.484.484 0 0 0-.484-.484h-4.839a.484.484 0 0 0-.483.484v6.29h-.968v-7.258c0-.266.217-.483.484-.483h3.387a.484.484 0 0 0 .484-.484v-4.839a.484.484 0 0 0-.484-.484h-6.774v-.968H36.58c.8 0 1.451.652 1.451 1.452v6.29h-.967v-4.838h-.968v13.548h-.968z"/>
        <path fill="#323C47" d="M34.161 16.742a2.422 2.422 0 0 0 2.42-2.42v-.967a2.422 2.422 0 0 0-2.42-2.42 2.422 2.422 0 0 0-2.42 2.42v.968a2.422 2.422 0 0 0 2.42 2.419zm-1.451-3.387c0-.8.651-1.452 1.451-1.452s1.452.652 1.452 1.452v.968c0 .8-.651 1.451-1.452 1.451-.8 0-1.451-.651-1.451-1.451v-.968z"/>
    </g>
</svg>
