<svg xmlns="http://www.w3.org/2000/svg" width="48" height="39" viewBox="0 0 48 39">
    <g fill="none" fill-rule="evenodd">
        <rect width="48" height="32" fill="#EBEDF8" fill-rule="nonzero" rx="3"/>
        <g transform="translate(6 11)">
            <path fill="#FFF" fill-rule="nonzero" d="M.691 24.132h12.932v-7.513c-.295-.928-.738-1.69-1.329-2.284-.59-.595-1.361-1.054-2.311-1.378H4.31a5.611 5.611 0 0 0-2.237 1.378 5.768 5.768 0 0 0-1.382 2.263v7.534z"/>
            <path fill="#FFF" fill-rule="nonzero" d="M11.497 27.102H24.43V19.59c-.295-.929-.738-1.69-1.329-2.285-.59-.594-1.361-1.053-2.311-1.377h-5.673a5.611 5.611 0 0 0-2.236 1.377 5.768 5.768 0 0 0-1.383 2.263v7.534z"/>
            <path fill="#FFF" fill-rule="nonzero" d="M22.366 24.195h12.932v-7.513c-.295-.928-.738-1.69-1.329-2.284-.59-.594-1.36-1.054-2.311-1.378h-5.673a5.611 5.611 0 0 0-2.236 1.378 5.768 5.768 0 0 0-1.383 2.263v7.534z"/>
            <path fill="#FA8132" fill-rule="nonzero" d="M5.34 12.894l1.753 5.876 1.897-5.876zM16.398 15.612l1.753 5.875 1.897-5.875zM26.702 12.578l1.752 5.876 1.898-5.876z"/>
            <ellipse cx="7.257" cy="6.605" fill="#FFF" fill-rule="nonzero" rx="3.675" ry="3.698"/>
            <ellipse cx="17.937" cy="9.512" fill="#FFF" fill-rule="nonzero" rx="3.675" ry="3.698"/>
            <ellipse cx="28.618" cy="6.479" fill="#FFF" fill-rule="nonzero" rx="3.675" ry="3.698"/>
            <ellipse cx="29.058" cy="1.865" fill="#FFF" fill-rule="nonzero" rx="1" ry="1"/>
            <g fill="#323C47">
                <path fill-rule="nonzero" d="M17.945 13.979c2.474 0 4.48-2.017 4.48-4.506 0-2.489-2.006-4.506-4.48-4.506-2.474 0-4.48 2.017-4.48 4.506.003 2.487 2.007 4.503 4.48 4.506zm0-7.592a3.077 3.077 0 0 1 3.067 3.086 3.076 3.076 0 0 1-3.067 3.085 3.076 3.076 0 0 1-3.067-3.085 3.08 3.08 0 0 1 3.067-3.086z"/>
                <path fill-rule="nonzero" d="M29.662 11.92h-1.906c-2.498 0-4.756 1.516-5.769 3.779a6.198 6.198 0 0 0-3.089-.823h-1.906a6.198 6.198 0 0 0-3.075.815 6.321 6.321 0 0 0-5.743-3.772H6.268C2.808 11.923.004 14.744 0 18.224v6.05c0 .392.316.71.706.71h10.019v2.246c0 .393.316.71.706.71h13.028c.39 0 .706-.317.706-.71v-2.246h10.058c.39 0 .706-.319.706-.71v-6.05c-.004-3.48-2.807-6.3-6.267-6.305zm0 1.42l.105.002-.852 3.677a.392.392 0 0 1-.332.312h-.028a.39.39 0 0 1-.36-.314l-.848-3.66c.135-.011.272-.017.41-.017h1.905zm-10.764 2.957c.13 0 .257.006.384.016l-1.16 3.803-1.165-3.818.034-.001h1.907zM8.173 13.34l.144.003-1.178 4.307-1.176-4.3c.1-.006.202-.01.304-.01h1.906zm-6.76 4.884a4.892 4.892 0 0 1 3.166-4.58l1.854 6.78v3.139h-5.02v-5.339zm6.432 5.339v-3.14l1.867-6.827a4.938 4.938 0 0 1 3.03 2.956 6.306 6.306 0 0 0-2.018 4.629v2.382h-2.88zm4.292-2.382a4.89 4.89 0 0 1 3.41-4.663l1.869 6.126v3.876h-5.28v-5.339zm11.616 5.339h-4.925v-3.876l1.834-6.012a4.89 4.89 0 0 1 3.09 4.549v5.339zm-.595-9.958a4.997 4.997 0 0 1 2.815-2.878l.847 3.655c.126.561.507 1.03 1.03 1.264v4.96h-2.685v-2.382a6.305 6.305 0 0 0-2.007-4.619zm11.36 7H29.26v-4.961c.52-.236.9-.701 1.03-1.26l.871-3.762a4.89 4.89 0 0 1 3.355 4.645v5.339zM28.67 11.062a4.483 4.483 0 0 0 4.326-3.339 4.517 4.517 0 0 0-2.087-5.068v-.682C30.909.883 30.03 0 28.947 0a1.967 1.967 0 0 0-1.96 1.973v.408a4.51 4.51 0 0 0-2.713 5.038 4.486 4.486 0 0 0 4.395 3.643zm0-1.42a3.074 3.074 0 0 1-2.874-2.007 7.29 7.29 0 0 0 1.648-.486 6.397 6.397 0 0 0 1.789-1.154c.5.564 1.28 1.236 2.344 1.56a3.03 3.03 0 0 1-2.908 2.087zm3.032-3.55c-.7-.293-1.218-.8-1.535-1.185.16-.239.305-.489.432-.747a3.088 3.088 0 0 1 1.103 1.932zm-3.304-4.119a.55.55 0 0 1 .55-.552.55.55 0 0 1 .549.552v.154a4.454 4.454 0 0 0-1.099-.069v-.085zm.271 1.497c.222 0 .443.024.659.072-.96 1.932-2.724 2.513-3.709 2.687a3.079 3.079 0 0 1 3.05-2.76zM7.22 11.062c2.465 0 4.433-1.974 4.48-4.493v-.013c0-2.49-2.006-4.507-4.48-4.507-2.474 0-4.48 2.018-4.48 4.507s2.006 4.506 4.48 4.506zm0-7.592a3.08 3.08 0 0 1 3.068 3.08c-.036 1.734-1.383 3.092-3.068 3.092a3.077 3.077 0 0 1-3.067-3.086A3.077 3.077 0 0 1 7.22 3.47z"/>
                <path d="M32.478 17.205h-1.334a.708.708 0 0 0-.706.71c0 .392.316.71.706.71h1.334c.39 0 .706-.318.706-.71a.708.708 0 0 0-.706-.71zM20.71 20.361a.708.708 0 0 0-.706.71c0 .393.317.711.706.711h1.334c.39 0 .706-.318.706-.71a.708.708 0 0 0-.706-.71H20.71zM11.297 17.678a.708.708 0 0 0-.706-.71H9.57a.708.708 0 0 0-.706.71c0 .392.316.71.706.71h1.02c.39 0 .706-.318.706-.71z"/>
            </g>
        </g>
    </g>
</svg>
