<svg xmlns="http://www.w3.org/2000/svg" width="48" height="39" viewBox="0 0 48 39">
    <g fill="none" fill-rule="evenodd">
        <rect width="48" height="32" fill="#EBEDF8" fill-rule="nonzero" rx="3"/>
        <g transform="translate(9 9)">
            <path fill="#FA8132" fill-rule="nonzero" d="M.794 24.586l2.416-.444 1.43-2.422 1.525 2.237 2.416.629-1.558 2.127.16 2.268-2.495-.892-2.336 1.147.19-2.548zM10.964 24.586l2.415-.444 1.43-2.422 1.526 2.237 2.415.629-1.557 2.127.159 2.268-2.495-.892-2.336 1.147.19-2.548zM21.324 24.586l2.415-.444 1.43-2.422 1.526 2.237 2.415.629-1.557 2.127.159 2.268-2.495-.892-2.336 1.147.191-2.548z"/>
            <ellipse cx="14.968" cy="4.745" fill="#FFF" fill-rule="nonzero" rx="4.29" ry="4.299"/>
            <path fill="#FFF" fill-rule="nonzero" d="M7.436 18.527h15.191c-.128-1.25-.313-2.18-.555-2.795-.242-.614-.728-1.383-1.458-2.307-.38-.664-1.001-1.19-1.864-1.578-.863-.387-2.102-.697-3.718-.93-1.488.105-2.566.294-3.235.568-.67.275-1.473.859-2.411 1.75-.754 1.164-1.24 2.041-1.458 2.633-.218.592-.382 1.478-.492 2.659z"/>
            <g fill="#323C47">
                <path fill-rule="nonzero" d="M15 9.427A4.714 4.714 0 0 0 15 0a4.714 4.714 0 0 0 0 9.427zm0-8.472a3.758 3.758 0 0 1 0 7.517 3.759 3.759 0 0 1 0-7.517z"/>
                <path d="M22.169 18.06H11.152a.477.477 0 0 0 0 .956h11.51a.477.477 0 0 0 .476-.478c0-4.497-3.65-8.155-8.138-8.155-4.487 0-8.138 3.658-8.138 8.155 0 .264.213.478.477.478h1.906a.477.477 0 0 0 0-.956H7.831c.246-3.748 3.367-6.722 7.169-6.722 3.802 0 6.923 2.974 7.169 6.722z"/>
                <path fill-rule="nonzero" d="M8.581 18.089h3.432v1H8.581zM8.988 24.058l-2.615-.44-1.226-2.356a.477.477 0 0 0-.845 0l-1.226 2.356-2.615.44a.477.477 0 0 0-.261.806l1.858 1.896-.391 2.628a.478.478 0 0 0 .684.498l2.373-1.184 2.374 1.184a.476.476 0 0 0 .684-.498l-.39-2.628 1.857-1.896a.478.478 0 0 0-.261-.806zM6.545 26.26a.478.478 0 0 0-.132.405l.291 1.957-1.767-.882a.476.476 0 0 0-.425 0l-1.767.882.29-1.957a.478.478 0 0 0-.13-.405L1.52 24.85l1.947-.328a.477.477 0 0 0 .344-.25l.913-1.755.912 1.755c.07.133.196.225.344.25l1.947.328-1.383 1.411zM19.263 24.058l-2.615-.44-1.225-2.356a.477.477 0 0 0-.846 0l-1.225 2.356-2.615.44a.477.477 0 0 0-.262.806l1.858 1.896-.39 2.628a.478.478 0 0 0 .683.498L15 28.702l2.374 1.184a.476.476 0 0 0 .684-.498l-.391-2.628 1.858-1.896a.478.478 0 0 0-.262-.806zM16.82 26.26a.478.478 0 0 0-.131.405l.29 1.957-1.767-.882a.476.476 0 0 0-.424 0l-1.768.882.291-1.957a.478.478 0 0 0-.131-.405l-1.383-1.411 1.947-.328a.477.477 0 0 0 .344-.25L15 22.516l.912 1.755c.07.133.197.225.344.25l1.947.328-1.383 1.411zM29.913 24.382a.477.477 0 0 0-.374-.324l-2.615-.44-1.226-2.356a.477.477 0 0 0-.845 0l-1.226 2.356-2.615.44a.477.477 0 0 0-.261.806l1.857 1.896-.39 2.628a.478.478 0 0 0 .684.498l2.373-1.184 2.374 1.184a.476.476 0 0 0 .684-.498l-.39-2.628 1.857-1.896a.478.478 0 0 0 .113-.482zm-2.817 1.878a.478.478 0 0 0-.132.405l.291 1.957-1.767-.882a.476.476 0 0 0-.425 0l-1.767.882.29-1.957a.478.478 0 0 0-.13-.405l-1.384-1.411 1.947-.328a.477.477 0 0 0 .344-.25l.913-1.755.912 1.755c.07.133.196.225.344.25l1.947.328-1.383 1.411z"/>
                <path d="M15 6.88a2.16 2.16 0 0 0 1.63-.747.476.476 0 1 0-.72-.627c-.229.266-.561.418-.91.418s-.681-.152-.911-.418a.476.476 0 1 0-.72.627A2.16 2.16 0 0 0 15 6.88z"/>
            </g>
        </g>
    </g>
</svg>
