<svg xmlns="http://www.w3.org/2000/svg" width="48" height="39" viewBox="0 0 48 39">
    <g fill="none" fill-rule="evenodd">
        <rect width="48" height="32" fill="#EBEDF8" fill-rule="nonzero" rx="3"/>
        <path fill="#FFF" fill-rule="nonzero" d="M10.23 12.172l8.73 1.816 10.08-1.816 9.169 2.36v22.894l-8.73-1.673-9.58 2.054-9.669-2.139z"/>
        <path fill="#FA8132" fill-rule="nonzero" d="M16.412 25.135c-1.973-1.964-2.959-3.59-2.959-4.877s.986-2.409 2.96-3.364c2.265.772 3.398 1.844 3.398 3.217 0 1.374-1.133 3.048-3.399 5.024zM31.06 32.752c-1.972-1.964-2.958-3.59-2.958-4.877s.986-2.408 2.959-3.363c2.265.77 3.398 1.843 3.398 3.217 0 1.373-1.133 3.048-3.398 5.023z"/>
        <g fill="#323C47">
            <path fill-rule="nonzero" d="M38.332 13.279l-9.1-2.253a.875.875 0 0 0-.404-.004l-9.506 2.134-9.246-2.133A.878.878 0 0 0 9 11.879v23.705c0 .41.283.765.682.856l9.414 2.164c.128.03.26.03.389.001l9.526-2.13 8.899 2.203a.873.873 0 0 0 .753-.162.879.879 0 0 0 .337-.692V14.132a.879.879 0 0 0-.668-.853zm-1.09 23.422l-8.01-1.983a.875.875 0 0 0-.403-.004l-9.533 2.132-8.538-1.962v-21.9l8.364 1.93c.128.03.261.03.39 0l9.499-2.132 8.231 2.038v21.881z"/>
            <path d="M17.496 20.038a.88.88 0 0 0-.879-.879.88.88 0 0 0-.879.879.88.88 0 0 0 .88.879.88.88 0 0 0 .878-.88z"/>
            <path fill-rule="nonzero" d="M27.281 27.83c0 .63.198 1.405.553 2.212l-9.505-5.031a8.088 8.088 0 0 0 1.065-1.337c.83-1.28 1.325-2.639 1.325-3.636a4.106 4.106 0 0 0-4.102-4.102 4.106 4.106 0 0 0-4.101 4.102c0 .997.495 2.356 1.324 3.636.447.69 1.266 1.767 2.197 2.112 0 0 14.634 7.743 14.674 7.757.218.093.443.147.672.147 1.162 0 2.239-1.393 2.777-2.223.83-1.28 1.324-2.639 1.324-3.636a4.106 4.106 0 0 0-4.101-4.102 4.106 4.106 0 0 0-4.102 4.102zm-13.008-7.792a2.347 2.347 0 0 1 2.344-2.344 2.346 2.346 0 0 1 2.344 2.344c0 .612-.375 1.611-.956 2.545-.624 1.004-1.183 1.461-1.388 1.547-.205-.086-.763-.543-1.387-1.547-.581-.934-.957-1.933-.957-2.545zm17.11 5.45a2.346 2.346 0 0 1 2.344 2.343c0 .612-.376 1.611-.957 2.545-.622 1-1.178 1.458-1.385 1.546l-.104-.055c-.255-.164-.746-.622-1.286-1.49-.58-.935-.956-1.934-.956-2.546a2.347 2.347 0 0 1 2.344-2.344z"/>
            <path d="M31.383 28.71a.88.88 0 0 0 .879-.88.88.88 0 0 0-.88-.878.88.88 0 0 0-.878.879.88.88 0 0 0 .879.879z"/>
        </g>
    </g>
</svg>
