<svg xmlns="http://www.w3.org/2000/svg" width="42" height="36" viewBox="0 0 42 36">
    <g fill="none" fill-rule="evenodd">
        <rect width="42" height="30" fill="#EBEDF8" fill-rule="nonzero" rx="3"/>
        <g transform="translate(6 6)">
            <circle cx="22" cy="19" r="4.5" fill="#F84B0F" fill-rule="nonzero"/>
            <path fill="#323C47" fill-rule="nonzero" d="M17 18.99a4.991 4.991 0 1 0 9.982 0 4.991 4.991 0 0 0-9.982 0zm4.991-3.992a3.993 3.993 0 1 1 0 7.986 3.993 3.993 0 0 1 0-7.986z"/>
            <path fill="#323C47" d="M19.118 29.002h5.705V30h-5.705zM16.98 27.005h9.982v.999h-9.983zM5.999 27.005h.998v.999H6zM3.004 28.004h.998v.998h-.998z"/>
            <path fill="#FFF" fill-rule="nonzero" d="M1.792 24.208l1.145 1.024 1.313 1.393c1.575-2.376 2.88-5.043 3.917-8 1.036-2.957 1.81-6.207 2.324-9.75L15.809 14c.304-1.501.368-2.682.191-3.542-.177-.86-1.066-1.882-2.667-3.068h5.209c-.48-1.054-1.078-1.824-1.792-2.31-.714-.485-2.075-.804-4.083-.955l3.142-3.074C14.253.66 13.094.575 12.333.79c-.76.217-1.692.897-2.795 2.042C8.188 1.687 7.12 1.006 6.333.792 5.547.577 4.437.663 3.004 1.05l3.33 3.407c-2.009-.087-3.356.052-4.042.415-.687.363-1.187 1.202-1.5 2.517h4.5c-1.288 1.115-2.05 2.013-2.288 2.693-.237.681-.18 1.808.172 3.382l5.426-4.84c-.7 3.736-1.457 6.514-2.269 8.333-.812 1.82-2.326 4.237-4.541 7.25z"/>
            <path fill="#323C47" fill-rule="nonzero" d="M10.85 9.423l4.643 4.615a.498.498 0 0 0 .795-.131 4.872 4.872 0 0 0-.914-5.632l-.408-.408h3.51a.499.499 0 0 0 .474-.657 4.873 4.873 0 0 0-4.629-3.336h-.648l2.492-2.507a.499.499 0 0 0-.13-.798 4.874 4.874 0 0 0-5.635.914l-.477.476c-.155.157-.3.323-.432.5a4.796 4.796 0 0 0-.43-.5l-.476-.476a4.872 4.872 0 0 0-5.63-.914.499.499 0 0 0-.131.798l2.495 2.507h-.655A4.873 4.873 0 0 0 .035 7.21a.499.499 0 0 0 .474.657h3.507l-.408.408a4.873 4.873 0 0 0-.915 5.632.499.499 0 0 0 .799.13l4.322-4.296a27.052 27.052 0 0 1-5.218 13.19 18.623 18.623 0 0 0-2.037-.415l-.312-.032-.1.994.29.029c.5.071.996.172 1.49.286-.1.125-.2.253-.304.376l.766.64a28.1 28.1 0 0 0 6.53-16.166l.574-.571.43.428c-.525 6.357-2.593 12.332-6.215 17.583l.703.707c.393-.56.767-1.142 1.13-1.734a17.703 17.703 0 0 1 6.039 4.731l.772-.632a18.643 18.643 0 0 0-3.314-3.148h20.918v-.998H7.56a18.4 18.4 0 0 0-1.51-.812A37.8 37.8 0 0 0 10.85 9.423zm4.809 3.371l-5.274-5.243a3.85 3.85 0 0 1 3.81.953l.477.477a3.875 3.875 0 0 1 .987 3.813zm2.056-5.925h-4.133a4.868 4.868 0 0 0-3.091-.369 3.87 3.87 0 0 1 3.155-1.627h.674a3.875 3.875 0 0 1 3.395 1.996zm-7.087-4.204l.476-.477a3.878 3.878 0 0 1 3.815-.987l-2.958 2.977c-.96.353-1.785 1-2.356 1.849a3.778 3.778 0 0 1 1.024-3.362h-.001zm-2.75-.477l.477.477c.222.227.415.48.574.756a4.749 4.749 0 0 0-.382 1.66 4.869 4.869 0 0 0-1.522-.903L4.065 1.2a3.876 3.876 0 0 1 3.815.987h-.002zM4.662 4.873h.674a3.872 3.872 0 0 1 3.158 1.626 4.87 4.87 0 0 0-3.09.37H1.27a3.876 3.876 0 0 1 3.394-1.996h-.002zm-1.335 7.921a3.875 3.875 0 0 1 .987-3.813l.476-.477A3.815 3.815 0 0 1 7.496 7.39c.375 0 .747.054 1.106.16l-5.275 5.244z"/>
        </g>
    </g>
</svg>
