<svg xmlns="http://www.w3.org/2000/svg" width="42" height="37" viewBox="0 0 42 37">
    <g fill="none" fill-rule="nonzero">
        <rect width="42" height="30" fill="#EBEDF8" rx="3"/>
        <path fill="#FFF" d="M21.084 7.674L7.096 13.952H9.75v2.326h.97V29.88h-.97v2.023H8.697v2.106H6.59v2.234h28.778v-2.234h-1.896v-1.77H32.46V29.88h-1.264V16.48h.927v-2.528h2.78z"/>
        <path fill="#F84B0F" d="M10.045 14.079h4.551v2.107h-4.551zM10.045 29.837h4.551v2.107h-4.551zM27.404 14.079h4.551v2.107h-4.551zM27.404 29.837h4.551v2.107h-4.551z"/>
        <path fill="#323C47" d="M35.425 33.691h-1.599v-1.693a.52.52 0 0 0-.52-.52h-.632v-1.589a.52.52 0 0 0-.52-.52h-.471V16.797h.47a.52.52 0 0 0 .52-.52v-1.589h2.752a.52.52 0 0 0 .217-.994L21.217 7.102a.521.521 0 0 0-.433 0L6.359 13.694a.52.52 0 0 0 .216.994h2.751v1.588c0 .288.234.52.521.52h.47V29.37h-.47a.52.52 0 0 0-.52.52v1.589h-.633a.52.52 0 0 0-.52.52v1.693H6.575a.52.52 0 0 0-.52.52v2.214c0 .287.233.52.52.52h28.85a.52.52 0 0 0 .52-.52v-2.213a.52.52 0 0 0-.52-.52zM8.966 13.647L21 8.147l12.034 5.5H8.966zM31.633 30.41v1.068h-3.718V30.41h3.718zm-2.727-1.041V16.797h1.736v12.572h-1.736zm-.99-13.613v-1.068h3.717v1.068h-3.718zm-.521 1.04h.47V29.37h-.47a.52.52 0 0 0-.52.52v1.589H22.56v-16.79h4.313v1.588c0 .288.233.52.52.52zm-5.875-2.108v16.79h-1.04v-16.79h1.04zm-6.915 14.68h-.47V16.798h.47a.52.52 0 0 0 .52-.52v-1.589h4.314v16.79h-4.313v-1.589a.52.52 0 0 0-.52-.52zm-.52 1.042v1.068h-3.718V30.41h3.718zm-2.727-1.041V16.797h1.735v12.572h-1.735zm-.99-13.613v-1.068h3.717v1.068h-3.718zM9.214 32.519h23.57v1.172H9.215V32.52zm25.69 3.385H7.094v-1.172h27.81v1.172z"/>
    </g>
</svg>
