<svg xmlns="http://www.w3.org/2000/svg" width="42" height="36" viewBox="0 0 42 36">
    <g fill="none" fill-rule="evenodd">
        <rect width="42" height="30" fill="#EBEDF8" fill-rule="nonzero" rx="3"/>
        <path fill="#FFF" d="M25.277 9.282v2.343h-4.805V9.282zM19.242 8.11v-.742c0-.108.087-.196.195-.196h6.875c.107 0 .195.088.195.196v.742h-7.265zM26.312 33.07h-9.064a3.166 3.166 0 0 1-3.162-3.162V15.959a3.166 3.166 0 0 1 3.162-3.162H28.5a3.166 3.166 0 0 1 3.162 3.162v13.949a3.166 3.166 0 0 1-3.162 3.162h-2.19z"/>
        <path fill="#F84B0F" d="M24.65 19.04a2.98 2.98 0 0 0-1.776.592 2.98 2.98 0 0 0-1.775-.593c-1.67 0-3.03 1.401-3.03 3.123 0 1.163.782 2.397 2.323 3.67a15.576 15.576 0 0 0 2.201 1.51.586.586 0 0 0 .562 0 15.572 15.572 0 0 0 2.202-1.51c1.54-1.273 2.322-2.507 2.322-3.67 0-1.722-1.36-3.123-3.03-3.123z"/>
        <path fill="#323C47" fill-rule="nonzero" d="M24.65 19.04a2.98 2.98 0 0 0-1.776.592 2.98 2.98 0 0 0-1.775-.593c-1.67 0-3.03 1.401-3.03 3.123 0 1.163.782 2.397 2.323 3.67a15.576 15.576 0 0 0 2.201 1.51.586.586 0 0 0 .562 0 15.572 15.572 0 0 0 2.202-1.51c1.54-1.273 2.322-2.507 2.322-3.67 0-1.722-1.36-3.123-3.03-3.123zm-1.776 7.113c-1.227-.728-3.632-2.47-3.632-3.99 0-1.077.833-1.952 1.857-1.952a1.8 1.8 0 0 1 1.342.602.586.586 0 0 0 .866 0 1.8 1.8 0 0 1 1.342-.602c1.025 0 1.858.875 1.858 1.951 0 1.521-2.406 3.263-3.633 3.99z"/>
        <path fill="#323C47" d="M27.649 14.41H25.92a.586.586 0 0 0 0 1.172h1.728c.78 0 1.416.636 1.416 1.417v1.013a.586.586 0 0 0 1.172 0v-1.013a2.592 2.592 0 0 0-2.588-2.589zM23.699 14.582a.59.59 0 0 0-1 .414.59.59 0 0 0 .585.586.59.59 0 0 0 .586-.586.59.59 0 0 0-.171-.414zM19.828 30.285H18.1a1.418 1.418 0 0 1-1.417-1.417v-1.013a.586.586 0 0 0-1.172 0v1.013a2.591 2.591 0 0 0 2.589 2.589h1.727a.586.586 0 0 0 0-1.172zM22.878 30.457a.59.59 0 0 0-.414-.172.59.59 0 0 0-.586.586.59.59 0 0 0 .586.586.59.59 0 0 0 .586-.586.59.59 0 0 0-.172-.414z"/>
        <path fill="#323C47" fill-rule="nonzero" d="M35.414 34.828h-6.202c.019-.095.03-.193.03-.293v-.358a4.34 4.34 0 0 0 3.593-4.27V15.96a4.339 4.339 0 0 0-4.334-4.334h-2.053V9.282h.645a.586.586 0 0 0 .586-.586V7.368c0-.754-.613-1.367-1.367-1.367h-6.875c-.754 0-1.367.613-1.367 1.367v1.328c0 .323.262.586.586.586h.644v2.343h-2.052a4.339 4.339 0 0 0-4.334 4.334v4.455H9.75a.586.586 0 0 0 0 1.172h3.164v2.607H6.586a.586.586 0 0 0 0 1.172h6.328v4.543a4.339 4.339 0 0 0 3.984 4.318v.309c0 .1.01.198.03.293H6.586a.586.586 0 0 0 0 1.172h28.828a.586.586 0 0 0 0-1.172zM19.242 8.11v-.742c0-.108.087-.196.195-.196h6.875c.107 0 .195.088.195.196v.742h-7.265zm6.035 1.172v2.343h-4.805V9.282h4.805zm-6.035 25.253a.293.293 0 0 1-.293.293h-.586a.293.293 0 0 1-.293-.293v-.293h1.172v.293zm1.142.293c.02-.095.03-.193.03-.293v-.293h5.312v.293c0 .1.01.198.03.293h-5.372zm7.685-.293a.293.293 0 0 1-.293.293h-.585a.293.293 0 0 1-.293-.293v-.293h1.171v.293zm-1.757-1.465h-9.064a3.166 3.166 0 0 1-3.162-3.162V15.959a3.166 3.166 0 0 1 3.162-3.162H28.5a3.166 3.166 0 0 1 3.162 3.162v13.949a3.166 3.166 0 0 1-3.162 3.162h-2.19z"/>
    </g>
</svg>
