<svg xmlns="http://www.w3.org/2000/svg" width="42" height="36" viewBox="0 0 42 36">
    <g fill="none" fill-rule="evenodd">
        <rect width="42" height="30" fill="#EBEDF8" fill-rule="nonzero" rx="3"/>
        <path fill="#FAFAFA" fill-rule="nonzero" d="M22.02 12.477l12.453 5.625c.464-2.54.464-4.415 0-5.625-.465-1.21-1.599-2.43-3.402-3.665-2.694-.373-4.564-.373-5.61 0-1.044.374-2.192 1.596-3.441 3.665z"/>
        <path fill="#FFF" fill-rule="nonzero" d="M7.9 28.756c.327-1.625.935-2.79 1.824-3.495 3.503-2.78 9.704-4.185 15.058-3.238 7.391 1.307 10.918 4.052 10.58 8.236-2.849-1.115-7.074-1.14-12.673-.075-5.6 1.065-10.53.589-14.79-1.428z"/>
        <g transform="translate(6.015 6)">
            <path fill="#323C47" fill-rule="nonzero" d="M11.261 25.05c-1.71 0-7.46-.13-9.71-1.8a.612.612 0 0 1-.243-.563c.24-2.07 1.872-3.97 4.598-5.349 2.631-1.33 6.062-2.063 9.66-2.063 3.752 0 7.289.788 9.96 2.22 2.79 1.495 4.328 3.528 4.328 5.723 0 .386-.05.777-.149 1.162a.608.608 0 0 1-.719.444c-1.377-.304-4.111-.813-6.95-.813-1.403 0-2.659.127-3.732.378-1.798.42-4.365.662-7.043.662zm-8.683-2.586c1.48.847 4.734 1.365 8.682 1.365h.001c2.589 0 5.055-.23 6.767-.63 1.164-.272 2.512-.41 4.008-.41 2.572 0 5.051.4 6.59.71.008-.094.012-.188.012-.281 0-1.722-1.309-3.372-3.685-4.645-2.498-1.339-5.831-2.076-9.388-2.076-3.411 0-6.648.686-9.112 1.933-2.175 1.1-3.535 2.52-3.875 4.034z"/>
            <path fill="#323C47" d="M10.876 29.939c-1.056 0-2.121-.037-3.146-.113-1.926-.143-3.6-.42-4.841-.8-1.583-.485-2.497-1.13-2.793-1.973a.607.607 0 1 1 1.146-.408c.246.698 2.116 1.63 6.577 1.962 3.5.26 7.457.052 9.844-.52 4.945-1.182 11.465.542 11.74.616a.611.611 0 0 1-.314 1.18c-.064-.017-6.501-1.718-11.144-.607-1.789.428-4.402.663-7.069.663z"/>
            <path fill="#323C47" d="M10.876 27.495c-1.056 0-2.121-.037-3.146-.113-1.926-.143-3.6-.42-4.841-.8-1.583-.485-2.497-1.13-2.793-1.973a.607.607 0 1 1 1.146-.408c.246.698 2.116 1.63 6.577 1.962 3.5.26 7.457.052 9.844-.52 4.945-1.182 11.465.542 11.74.616a.611.611 0 0 1-.314 1.18c-.064-.017-6.501-1.718-11.144-.607-1.789.428-4.402.663-7.069.663z"/>
            <path fill="#323C47" d="M10.876 27.495c-1.056 0-2.121-.037-3.146-.113-1.926-.143-3.6-.42-4.841-.8-1.583-.485-2.497-1.13-2.793-1.973a.607.607 0 1 1 1.146-.408c.246.698 2.116 1.63 6.577 1.962 3.5.26 7.457.052 9.844-.52 4.945-1.182 11.465.542 11.74.616a.611.611 0 0 1-.314 1.18c-.064-.017-6.501-1.718-11.144-.607-1.789.428-4.402.663-7.069.663zM18.91 16.497a.612.612 0 0 1-.549-.874l6.08-12.83a.607.607 0 0 1 .81-.29c.304.145.432.51.288.815l-6.08 12.83a.608.608 0 0 1-.55.35z"/>
            <path fill="#323C47" fill-rule="nonzero" d="M28.258 12.831a.605.605 0 0 1-.25-.054L15.62 7.175a.612.612 0 0 1-.305-.808l.207-.462a7.414 7.414 0 0 1 6.752-4.386c1.05 0 2.07.22 3.033.657A7.373 7.373 0 0 1 29.19 6.32a7.421 7.421 0 0 1-.171 5.689l-.207.462a.61.61 0 0 1-.554.36zM16.674 6.312l11.278 5.1a6.2 6.2 0 0 0 .1-4.659 6.162 6.162 0 0 0-3.244-3.463 6.11 6.11 0 0 0-2.534-.55 6.196 6.196 0 0 0-5.6 3.572z"/>
            <path fill="#323C47" fill-rule="nonzero" d="M25.078 11.394a.604.604 0 0 1-.249-.054L18.8 8.613a.612.612 0 0 1-.305-.808l1.637-3.656a3.921 3.921 0 0 1 3.572-2.32 3.87 3.87 0 0 1 1.604.347 3.9 3.9 0 0 1 2.054 2.192c.37.982.339 2.05-.09 3.009l-1.638 3.656a.608.608 0 0 1-.555.36zm-5.225-3.645l4.92 2.226 1.389-3.1c.295-.66.318-1.397.062-2.074a2.688 2.688 0 0 0-1.416-1.511 2.665 2.665 0 0 0-1.105-.24c-1.06 0-2.028.628-2.463 1.6l-1.387 3.1z"/>
            <ellipse cx="6.756" cy="6.69" fill="#F84B0F" fill-rule="nonzero" rx="3.442" ry="3.452"/>
            <path fill="#323C47" fill-rule="nonzero" d="M6.75 10.998c-2.348 0-4.257-1.919-4.257-4.277s1.91-4.277 4.256-4.277c2.347 0 4.256 1.919 4.256 4.277s-1.909 4.277-4.256 4.277zm0-7.332a3.051 3.051 0 0 0-3.041 3.055 3.051 3.051 0 0 0 3.04 3.055c1.676 0 3.04-1.37 3.04-3.055a3.051 3.051 0 0 0-3.04-3.055z"/>
            <path fill="#323C47" d="M6.75 1.833a.61.61 0 0 1-.609-.611V.611A.61.61 0 0 1 6.75 0a.61.61 0 0 1 .608.611v.611a.61.61 0 0 1-.608.611zM10.619 3.444a.613.613 0 0 1-.43-1.043l.43-.433a.606.606 0 0 1 .86 0 .613.613 0 0 1 0 .865l-.43.432a.605.605 0 0 1-.43.179zM12.83 7.332h-.609a.61.61 0 0 1-.608-.611.61.61 0 0 1 .608-.611h.608a.61.61 0 0 1 .608.611.61.61 0 0 1-.608.611zM11.049 11.652a.605.605 0 0 1-.43-.179l-.43-.432a.613.613 0 0 1 0-.864.606.606 0 0 1 .86 0l.43.432a.613.613 0 0 1-.43 1.043zM6.75 13.442a.61.61 0 0 1-.609-.611v-.611a.61.61 0 0 1 .608-.611.61.61 0 0 1 .608.611v.611a.61.61 0 0 1-.608.611zM2.45 11.652a.613.613 0 0 1-.43-1.043l.43-.432a.606.606 0 0 1 .86 0 .613.613 0 0 1 0 .864l-.43.432a.605.605 0 0 1-.43.18zM1.277 7.332H.669a.61.61 0 0 1-.608-.611.61.61 0 0 1 .608-.611h.608a.61.61 0 0 1 .608.611.61.61 0 0 1-.608.611zM2.88 3.444a.605.605 0 0 1-.43-.18l-.43-.431a.613.613 0 0 1 0-.865.606.606 0 0 1 .86 0l.43.432a.613.613 0 0 1-.43 1.044zM8.883 2.268a.612.612 0 0 1-.56-.85L8.56.857a.607.607 0 0 1 .797-.324c.31.132.454.49.323.801l-.237.563a.608.608 0 0 1-.56.372zM11.821 5.268a.612.612 0 0 1-.228-1.177l.564-.23a.607.607 0 0 1 .791.337.612.612 0 0 1-.335.796l-.564.229a.603.603 0 0 1-.228.045zM12.348 9.715a.603.603 0 0 1-.237-.049l-.56-.238a.612.612 0 0 1-.323-.801.607.607 0 0 1 .797-.324l.56.238a.612.612 0 0 1-.237 1.174zM9.032 12.995a.608.608 0 0 1-.564-.382l-.228-.566a.612.612 0 0 1 .335-.796.607.607 0 0 1 .792.337l.228.567a.612.612 0 0 1-.563.84zM4.378 12.958a.612.612 0 0 1-.56-.85l.237-.562a.607.607 0 0 1 .797-.324c.31.132.454.49.323.8l-.237.564a.608.608 0 0 1-.56.372zM1.114 9.626a.612.612 0 0 1-.228-1.177l.563-.23a.607.607 0 0 1 .792.337.612.612 0 0 1-.336.796l-.563.229a.603.603 0 0 1-.228.045zM1.71 5.188a.603.603 0 0 1-.237-.049l-.56-.238a.612.612 0 0 1-.323-.8.607.607 0 0 1 .797-.325l.56.238a.612.612 0 0 1-.237 1.174zM4.695 2.235a.608.608 0 0 1-.564-.382l-.228-.566a.612.612 0 0 1 .335-.796.607.607 0 0 1 .792.337l.228.567a.612.612 0 0 1-.563.84z"/>
        </g>
    </g>
</svg>
