<svg xmlns="http://www.w3.org/2000/svg" width="42" height="36" viewBox="0 0 42 36">
    <g fill="none" fill-rule="evenodd">
        <rect width="42" height="30" fill="#EBEDF8" fill-rule="nonzero" rx="3"/>
        <g transform="translate(6 6)">
            <path fill="#FFF" fill-rule="nonzero" d="M5.966 13.03a9.492 9.492 0 0 1-.466-2.947 9.5 9.5 0 0 1 19 0 9.49 9.49 0 0 1-.482 2.995 6.794 6.794 0 0 1 1.92 12.513 2.917 2.917 0 1 1-5.689.91l-10.832-.001a2.917 2.917 0 1 1-5.675-.95 6.794 6.794 0 0 1 2.224-12.52z"/>
            <path fill="#000" fill-rule="nonzero" d="M6.5 25a1.5 1.5 0 1 0 0 3 1.5 1.5 0 0 0 0-3zm0 2a.5.5 0 1 1 0-1 .5.5 0 0 1 0 1zM23 25a1.5 1.5 0 1 0 0 3 1.5 1.5 0 0 0 0-3zm0 2a.5.5 0 1 1 0-1 .5.5 0 0 1 0 1z"/>
            <path fill="#323C47" fill-rule="nonzero" d="M26 12h-1.2a10 10 0 1 0-19.6 0H3a3.003 3.003 0 0 0-3 3v9a3 3 0 0 0 3.04 3 3.496 3.496 0 0 0 6.92 0h9.58a3.496 3.496 0 0 0 6.92 0h2.04a1.5 1.5 0 0 0 1.5-1.5V16a4.005 4.005 0 0 0-4-4zm-6.67 7a10.04 10.04 0 0 0 3.17-2.407V19h-3.17zm4.17-3.758c.05-.08.1-.16.147-.242H25.5a1 1 0 0 1 1 1v4.5h-2a1 1 0 0 1-1-1v-4.258zM15 1a9 9 0 1 1-9 9 9.01 9.01 0 0 1 9-9zM5 19a1.5 1.5 0 0 1-1.5-1.5V15h2.853c.197.337.413.663.647.975V19H5zm3-1.87A10.034 10.034 0 0 0 10.67 19H8v-1.87zM6.5 29a2.5 2.5 0 1 1 0-5 2.5 2.5 0 0 1 0 5zM23 29a2.5 2.5 0 1 1 0-5 2.5 2.5 0 0 1 0 5zm6-5h-1v-1h1v1zm0-2h-1a1 1 0 0 0-1 1v1a1 1 0 0 0 1 1h1v.5a.5.5 0 0 1-.5.5h-2.04a3.496 3.496 0 0 0-6.92 0H9.96a3.496 3.496 0 0 0-6.92 0A2 2 0 0 1 1 24v-9a2 2 0 0 1 2-2h2.461c.109.34.235.674.38 1H3.5a1 1 0 0 0-1 1v2.5A2.503 2.503 0 0 0 5 20h17.571a2 2 0 0 0 1.929 1.5h2a1 1 0 0 0 1-1V16a2 2 0 0 0-2-2h-1.341c.145-.326.271-.66.38-1H26a3.003 3.003 0 0 1 3 3v6z"/>
            <path fill="#323C47" d="M21 21H2.5a.5.5 0 1 0 0 1H21a.5.5 0 1 0 0-1z"/>
            <circle cx="11" cy="6.083" r="1" fill="#F84B0F" fill-rule="nonzero"/>
            <circle cx="15" cy="7" r="1" fill="#F84B0F" fill-rule="nonzero"/>
            <path fill="#F84B0F" fill-rule="nonzero" d="M11.021 13.167c2.37 0 2-.896 2-2a2 2 0 1 0-4 0c0 1.104-.37 2 2 2zM19.021 13.167c2.37 0 2-.896 2-2a2 2 0 1 0-4 0c0 1.104-.37 2 2 2z"/>
            <path fill="#F84B0F" fill-rule="nonzero" d="M15.021 14.25c2.664 0 2.247-1.007 2.247-2.25a2.249 2.249 0 0 0-2.247-2.25A2.249 2.249 0 0 0 12.774 12c0 1.243-.417 2.25 2.247 2.25z"/>
            <circle cx="19.167" cy="6" r="1" fill="#F84B0F" fill-rule="nonzero"/>
            <path fill="#323C47" fill-rule="nonzero" d="M15 8.5a1.5 1.5 0 1 0 0-3 1.5 1.5 0 0 0 0 3zm0-2a.5.5 0 1 1 0 1 .5.5 0 0 1 0-1zM11 7.5a1.5 1.5 0 1 0 0-3 1.5 1.5 0 0 0 0 3zm0-2a.5.5 0 1 1 0 1 .5.5 0 0 1 0-1z"/>
            <path fill="#323C47" fill-rule="nonzero" d="M12 13.556a.931.931 0 0 0 .916.944h4.168a.931.931 0 0 0 .916-.944c0-.081-.339-.056 3.085-.056a.931.931 0 0 0 .915-.945v-.89c0-3.124-3.886-4.357-5.506-1.74a2.841 2.841 0 0 0-2.988 0C11.885 7.306 8 8.54 8 11.665v.89a.931.931 0 0 0 .915.945c3.428 0 3.085-.025 3.085.056zm9-1.891v.835h-3.008a3.244 3.244 0 0 0-.723-1.9C18.273 8.662 21 9.456 21 11.665zm-4 1v.835h-4v-.834a2.09 2.09 0 0 1 2-2.166 2.09 2.09 0 0 1 2 2.166v-.001zm-8-1c0-2.179 2.716-3.024 3.731-1.063a3.245 3.245 0 0 0-.723 1.898H9v-.835zM19 7.5a1.5 1.5 0 1 0 0-3 1.5 1.5 0 0 0 0 3zm0-2a.5.5 0 1 1 0 1 .5.5 0 0 1 0-1z"/>
        </g>
    </g>
</svg>
