<svg xmlns="http://www.w3.org/2000/svg" width="42" height="36" viewBox="0 0 42 36">
    <g fill="none" fill-rule="nonzero">
        <rect width="42" height="30" fill="#EBEDF8" rx="3"/>
        <g transform="translate(6 6)">
            <path fill="#FFF" d="M6.5 29.167h16.469l5.273-10.75c.247-1.734.247-2.9 0-3.5-1.17-2.834-3.258-3.983-3.867-4.292-4.74-2.4-7.93 2.943-9.458 4.958-2-4.083-8.417-7.541-11.375-4.407-1.973 2.09-2.567 4.642-1.784 7.657L6.5 29.167z"/>
            <path fill="#F84B0F" d="M15.167 2.984C13.998 1.403 13.026.686 12.25.834 10.5 1.166 9.86 2.816 11 4.74c.4.675 1.691 1.921 3.875 3.738l4.5-4.312c.615-1.334.101-2.334-1.542-3-1.643-.667-2.532-.061-2.666 1.817z"/>
            <circle cx="4.333" cy="7.333" r="3.583" fill="#FFF"/>
            <circle cx="25.667" cy="7.333" r="3.583" fill="#FFF"/>
            <path fill="#323C47" d="M17.18 0c-.849 0-1.595.346-2.18 1.004C14.415.346 13.67.001 12.82.001c-1.748 0-3.118 1.425-3.118 3.245 0 1.885 1.465 3.113 3.491 4.812.393.33.8.67 1.231 1.044a.877.877 0 0 0 1.152 0c.393-.34.764-.654 1.122-.957 2.059-1.737 3.6-3.033 3.6-4.899 0-1.82-1.37-3.245-3.118-3.245zm-1.615 6.802c-.185.156-.373.314-.565.478l-.677-.57C12.44 5.135 11.46 4.265 11.46 3.247c0-.834.597-1.488 1.36-1.488.943 0 1.308 1.163 1.334 1.248a.875.875 0 0 0 1.692 0c.026-.085.39-1.248 1.334-1.248.763 0 1.36.654 1.36 1.488 0 1.022-1.126 1.995-2.975 3.556z"/>
            <path fill="#323C47" d="M29.733 8.882a4.392 4.392 0 0 0-2.626-5.632 4.4 4.4 0 0 0-5.632 2.626 4.37 4.37 0 0 0 .247 3.561c-3.29.224-5.897 2.604-6.576 5.45l-.028.116c-.12-.004-.115-.004-.236 0-.75-3.145-3.46-5.351-6.604-5.566a4.37 4.37 0 0 0 .247-3.561A4.4 4.4 0 0 0 2.893 3.25a4.392 4.392 0 0 0-.139 8.203A7.32 7.32 0 0 0 1.25 19.86l4.613 9.64c.146.305.455.5.793.5h16.69a.879.879 0 0 0 .793-.5l4.612-9.638a7.322 7.322 0 0 0-1.505-8.41 4.384 4.384 0 0 0 2.488-2.57zM15 16.758c.97 0 1.758.788 1.758 1.758A1.76 1.76 0 0 1 15 20.273a1.76 1.76 0 0 1-1.758-1.757c0-.97.789-1.758 1.758-1.758zM1.918 8.28A2.635 2.635 0 0 1 3.494 4.9a2.635 2.635 0 0 1 3.38 1.576 2.635 2.635 0 0 1-1.576 3.38 2.635 2.635 0 0 1-3.38-1.576zm5.29 19.96L2.834 19.1c-1.41-2.93.028-6.485 3.066-7.59 3.052-1.112 6.445.662 7.247 3.793l.047.2a3.524 3.524 0 0 0-1.656 2.414L9.49 16.405a2.636 2.636 0 1 0-3.163 4.219l4.786 3.603 1.004 4.015H7.209zm10.05-4.742l-1.186 4.743h-2.144l-1.185-4.743a.879.879 0 0 0-.324-.49l-5.036-3.791a.878.878 0 1 1 1.055-1.406l.005.005 3.683 2.719A3.513 3.513 0 0 0 15 22.03a3.513 3.513 0 0 0 2.874-1.495l3.687-2.723a.878.878 0 1 1 1.054 1.406l-5.034 3.79a.88.88 0 0 0-.324.49zm9.908-4.398l-4.375 9.14h-4.908l1.004-4.014 4.784-3.602a2.634 2.634 0 0 0 .527-3.692 2.64 2.64 0 0 0-3.685-.53l-2.05 1.513a3.523 3.523 0 0 0-1.656-2.415l.047-.2c.803-3.134 4.199-4.902 7.247-3.793 3.042 1.107 4.475 4.664 3.065 7.593zm.916-10.82a2.635 2.635 0 0 1-3.38 1.576 2.635 2.635 0 0 1-1.576-3.38 2.635 2.635 0 0 1 3.38-1.576 2.635 2.635 0 0 1 1.576 3.38z"/>
        </g>
    </g>
</svg>
