<svg xmlns="http://www.w3.org/2000/svg" width="42" height="36" viewBox="0 0 42 36">
    <g fill="none" fill-rule="nonzero">
        <rect width="42" height="30" fill="#EBEDF8" rx="3"/>
        <path fill="#FFF" d="M35.412 35.706H7.47l13.97-25z"/>
        <path fill="#F84B0F" d="M21.882 26.294L26 35.412l2.941-3.236-7.353-7.352z"/>
        <path fill="#323C47" d="M35.924 35.118L21.982 10.706l2.153-3.224a.588.588 0 0 0-.976-.653l-1.865 2.818-1.865-2.794a.588.588 0 0 0-.976.653l2.153 3.2L6.665 35.118a.588.588 0 0 0 .511.882h28.236a.588.588 0 0 0 .506-.294.588.588 0 0 0 .006-.588zM25.1 34.824h-7.606l3.8-8.548 3.806 8.548zm-2.147-7.706l5.4 4.835-2.177 2.388-3.223-7.223zm-2.247-14.194v11.764l-4.5 10.136H8.188l12.518-21.9zm6.618 21.9l2.27-2.518a.588.588 0 0 0-.047-.83l-7.665-6.905V12.924l12.518 21.9h-7.076z"/>
    </g>
</svg>
