<svg xmlns="http://www.w3.org/2000/svg" width="42" height="37" viewBox="0 0 42 37">
    <g fill="none" fill-rule="nonzero">
        <rect width="42" height="30" fill="#EBEDF8" rx="3"/>
        <path fill="#FFF" d="M8 13h27v22H8z"/>
        <path fill="#F84B0F" d="M27 19h4v5h-4z"/>
        <path fill="#323C47" d="M24.97 11.71h4.412V9.903c0-.499.395-.903.883-.903.487 0 .882.404.882.903v1.807h2.206c1.462 0 2.647 1.213 2.647 2.71v19.87c0 1.497-1.185 2.71-2.647 2.71H8.647C7.185 37 6 35.787 6 34.29V14.42c0-1.497 1.185-2.71 2.647-2.71h2.206V9.903c0-.499.395-.903.882-.903.488 0 .883.404.883.903v1.807h4.411V9.903c0-.499.395-.903.883-.903.487 0 .882.404.882.903v1.807h4.412V9.903c0-.499.395-.903.882-.903.488 0 .883.404.883.903v1.807zm.05 1.806v1.817a.9.9 0 0 1-.893.908.9.9 0 0 1-.894-.908v-1.817h-4.466v1.817a.9.9 0 0 1-.894.908.9.9 0 0 1-.893-.908v-1.817h-4.467v1.817a.9.9 0 0 1-.893.908.9.9 0 0 1-.893-.908v-1.817H8.493a.9.9 0 0 0-.893.908v19.984a.9.9 0 0 0 .893.908h25.014a.9.9 0 0 0 .893-.908V14.424a.9.9 0 0 0-.893-.908h-2.234v1.817a.9.9 0 0 1-.893.908.9.9 0 0 1-.893-.908v-1.817H25.02zm2.2 4.065h3.614c.999 0 1.808.808 1.808 1.806V23c0 .998-.81 1.806-1.808 1.806H27.22A1.807 1.807 0 0 1 25.412 23v-3.613c0-.998.809-1.806 1.807-1.806zm-.044 1.806v3.7h3.7v-3.7h-3.7z"/>
    </g>
</svg>
